<svg class="piece-graphics" viewBox="-169.508 302.301 212.089 199.703" width="53" height="50" xmlns="http://www.w3.org/2000/svg">
  <defs></defs>
  <path fill="#6f6f6f" stroke="#6f6f6f" stroke-width="2.684" d="M -10.712 325.746 C -10.712 325.746 -14.203 306.99 -14.203 304.371 C -14.203 301.756 -16.817 301.32 -19.435 304.81 C -22.053 308.3 -33.827 325.309 -33.827 325.309 L -10.735 325.718 L -10.712 325.746 Z"></path>
  <path fill="#6f6f6f" stroke="#6f6f6f" stroke-width="2.684" d="M -167.189 469.616 C -166.005 461.158 -164.389 453.096 -162.421 445.428 L -156.1 442.905 L -160.321 437.86 C -157.916 429.749 -155.121 422.118 -152.052 414.942 L -146.073 413.249 L -149.027 408.194 C -145.815 401.367 -142.363 395.001 -138.781 389.073 L -133.206 387.953 L -135.205 383.349 C -131.189 377.152 -127.063 371.493 -122.968 366.356 L -117.067 365.709 L -118.643 361.113 C -113.856 355.489 -109.189 350.596 -104.871 346.416 L -98.966 346.085 L -99.997 341.856 C -89.468 332.328 -82.028 327.692 -82.028 327.692 L -68.653 331.761 C -68.653 331.761 -62.258 328.271 -57.022 324.784 C -57.022 324.784 -53.535 313.154 -52.372 306.755 C -51.208 300.36 -47.721 303.268 -46.558 305.012 C -45.392 306.755 -33.327 320.132 -33.327 320.132 C -33.327 320.132 -26.11 319.142 -20.972 320.132 C -13.414 321.587 -9.922 326.675 -1.198 334.963 C 5.164 341.004 8.979 346.304 11.159 351.971 C 13.339 357.641 10.726 357.641 11.594 362.873 C 12.469 368.109 36.021 407.359 38.635 412.157 C 41.257 416.953 47.572 431.629 35.148 440.941 C 31.661 443.562 29.039 444.868 26.862 445.741 C 26.862 445.741 23.371 444.868 22.066 443.126 C 21.832 442.813 21.713 442.622 21.656 442.518 C 21.613 442.395 21.591 442.395 21.656 442.518 C 21.789 442.859 22.093 444.134 20.755 445.74 C 18.576 448.361 15.774 448.165 14.211 448.361 C 11.887 448.65 7.672 446.613 4.181 441.381 C 0.69 436.142 -1.49 434.4 -4.106 431.347 C -6.721 428.296 -21.156 421.54 -26.788 412.157 C -28.095 409.981 -31.147 410.851 -33.327 412.594 C -35.507 414.341 -47.721 414.777 -52.954 406.052 C -52.954 406.052 -55.427 428.993 -45.102 444.868 C -28.095 471.036 0.689 477.575 9.416 502.004 L -169.508 502.004 C -169.508 493.562 -169.064 485.463 -168.258 477.668 L -162.313 474.525 L -167.29 469.617 L -167.189 469.616 Z"></path>
  <path fill="none" stroke="#FFFFFF" stroke-width="2.684" d="M -75.05 337.575 C -75.05 337.575 -151.226 394.569 -151.226 497.494"></path>
  <path fill="none" stroke="#6f6f6f" stroke-width="2.684" d="M 21.661 441.836 C 21.598 441.742 21.598 441.742 21.661 441.836 Z"></path>
  <path fill="none" stroke="#FFFFFF" stroke-width="2.684" d="M -59.351 377.121 C -60.803 393.402 -53.241 405.03 -52.953 406.049 C -52.953 406.049 -71.273 396.603 -73.018 384.095"></path>
  <path fill="none" stroke="#FFFFFF" stroke-width="2.684" d="M -52.964 406.034 C -52.964 406.034 -65.177 411.997 -74.19 408.217"></path>
  <path fill="none" stroke="#6f6f6f" stroke-width="2.684" d="M 22.07 442.465 C 22.07 442.465 13.927 431.992 11.598 427.196"></path>
  <path fill="none" stroke="#FFFFFF" stroke-width="2.684" d="M -28.11 345.849 C -28.11 345.849 -14.699 345.917 -10.227 353.261 C -4.121 363.295 -11.098 364.601 -11.098 364.601 C -11.098 364.601 -18.077 366.786 -22.875 360.242 C -27.983 353.277 -23.747 348.902 -23.747 348.902 L -28.089 345.85 L -28.11 345.849 Z"></path>
  <path fill="none" stroke="#FFFFFF" stroke-width="2.684" d="M 36.888 419.782 C 32.089 418.476 29.037 418.907 26.86 420.222 C 26.86 420.222 29.037 413.676 25.116 408.006 C 21.187 402.336 14.644 401.901 8.977 390.998"></path>
  <line fill="none" stroke="#FFFFFF" stroke-width="2.684" x1="-90.466" y1="351.984" x2="-98.74" y2="346.73"></line>
  <line fill="none" stroke="#FFFFFF" stroke-width="2.684" x1="-107.473" y1="370.735" x2="-115.76" y2="366.802"></line>
  <line fill="none" stroke="#FFFFFF" stroke-width="2.684" x1="-122.735" y1="392.474" x2="-132.331" y2="388.541"></line>
  <line fill="none" stroke="#FFFFFF" stroke-width="2.684" x1="-134.955" y1="417.391" x2="-144.978" y2="413.899"></line>
  <line fill="none" stroke="#FFFFFF" stroke-width="2.684" x1="-144.544" y1="446.618" x2="-155.014" y2="443.567"></line>
  <line fill="none" stroke="#FFFFFF" stroke-width="2.684" x1="-150.216" y1="476.254" x2="-161.117" y2="474.965"></line>
</svg>
