<svg class="piece-graphics" viewBox="814.205 294.97 211.987 199.666" width="53" height="50" xmlns="http://www.w3.org/2000/svg">
  <defs></defs>
  <path fill="#6f6f6f" stroke="#6f6f6f" stroke-width="2.684" d="M 867.487 318.415 C 867.487 318.415 870.978 299.658 870.978 297.041 C 870.978 294.426 873.592 293.988 876.21 297.478 C 878.827 300.969 890.604 317.977 890.604 317.977 L 867.48 318.386 L 867.487 318.415 Z"></path>
  <path fill="#6f6f6f" stroke="#6f6f6f" stroke-width="2.684" d="M 1023.942 462.286 C 1022.759 453.831 1021.14 445.769 1019.174 438.103 L 1012.854 435.578 L 1017.076 430.53 C 1014.67 422.422 1011.874 414.787 1008.805 407.612 L 1002.826 405.919 L 1005.815 400.822 C 1002.601 393.997 999.151 387.63 995.566 381.702 L 989.992 380.583 L 991.992 375.979 C 987.977 369.784 983.847 364.123 979.752 358.986 L 973.853 358.339 L 975.429 353.743 C 970.643 348.119 965.976 343.226 961.659 339.047 L 955.751 338.715 L 956.783 334.486 C 946.257 324.957 938.813 320.322 938.813 320.322 L 925.439 324.393 C 925.439 324.393 919.042 320.901 913.81 317.414 C 913.81 317.414 910.32 305.784 909.162 299.385 C 907.994 292.992 904.504 295.9 903.346 297.64 C 902.178 299.385 890.113 312.761 890.113 312.761 C 890.113 312.761 882.896 311.772 877.759 312.761 C 870.198 314.216 866.708 319.305 857.986 327.593 C 851.62 333.633 847.804 338.933 845.629 344.6 C 843.447 350.27 846.062 350.27 845.192 355.502 C 844.317 360.739 820.764 399.991 818.153 404.789 C 815.532 409.587 809.212 424.257 821.64 433.575 C 825.124 436.193 827.744 437.505 829.923 438.371 C 829.923 438.371 833.413 437.505 834.722 435.76 C 834.952 435.446 835.075 435.253 835.134 435.148 C 835.174 435.029 835.195 435.026 835.134 435.148 C 834.998 435.489 834.691 436.765 836.031 438.371 C 838.212 440.989 841.014 440.798 842.575 440.989 C 844.898 441.284 849.113 439.247 852.606 434.011 C 856.093 428.779 858.275 427.031 860.892 423.98 C 863.507 420.926 877.944 414.172 883.576 404.789 C 884.881 402.612 887.935 403.481 890.114 405.226 C 892.295 406.972 904.504 407.411 909.74 398.684 C 909.74 398.684 912.213 421.627 901.887 437.503 C 884.881 463.668 856.092 470.21 847.368 494.636 L 1026.192 494.636 C 1026.192 486.194 1025.747 478.089 1024.942 470.297 L 1018.994 467.157 L 1024.027 462.281 L 1023.942 462.286 Z"></path>
  <path fill="none" stroke="#FFFFFF" stroke-width="2.684" d="M 931.825 330.244 C 931.825 330.244 1008.001 387.236 1008.001 490.167"></path>
  <path fill="none" stroke="#6f6f6f" stroke-width="2.684" d="M 835.114 434.506 C 835.177 434.411 835.145 434.411 835.114 434.506 Z"></path>
  <path fill="none" stroke="#FFFFFF" stroke-width="2.684" d="M 916.126 369.791 C 917.576 386.07 910.018 397.702 909.729 398.718 C 909.729 398.718 928.05 389.271 929.795 376.765"></path>
  <path fill="none" stroke="#FFFFFF" stroke-width="2.684" d="M 909.708 398.703 C 909.708 398.703 921.92 404.667 930.935 400.886"></path>
  <path fill="none" stroke="#6f6f6f" stroke-width="2.684" d="M 834.705 435.135 C 834.705 435.135 842.847 424.665 845.176 419.869"></path>
  <path fill="none" stroke="#FFFFFF" stroke-width="2.684" d="M 884.854 338.519 C 884.854 338.519 871.443 338.583 866.969 345.929 C 860.865 355.963 867.845 357.271 867.845 357.271 C 867.845 357.271 874.819 359.454 879.618 352.911 C 884.727 345.945 880.488 341.57 880.488 341.57 L 884.829 338.518 L 884.854 338.519 Z"></path>
  <path fill="none" stroke="#FFFFFF" stroke-width="2.684" d="M 819.887 412.452 C 824.683 411.144 827.734 411.579 829.912 412.891 C 829.912 412.891 827.734 406.347 831.657 400.675 C 835.586 395.006 842.131 394.572 847.793 383.67"></path>
  <line fill="none" stroke="#FFFFFF" stroke-width="2.684" x1="947.209" y1="344.622" x2="955.515" y2="339.4"></line>
  <line fill="none" stroke="#FFFFFF" stroke-width="2.684" x1="964.229" y1="363.373" x2="972.535" y2="359.472"></line>
  <line fill="none" stroke="#FFFFFF" stroke-width="2.684" x1="979.488" y1="385.144" x2="989.084" y2="381.211"></line>
  <line fill="none" stroke="#FFFFFF" stroke-width="2.684" x1="991.726" y1="410.061" x2="1001.731" y2="406.569"></line>
  <line fill="none" stroke="#FFFFFF" stroke-width="2.684" x1="1001.291" y1="439.288" x2="1011.767" y2="436.236"></line>
  <line fill="none" stroke="#FFFFFF" stroke-width="2.684" x1="1006.985" y1="468.924" x2="1017.87" y2="467.634"></line>
</svg>
