<svg class="piece-graphics" viewBox="803.728 30.209 211.985 199.691" width="53" height="50" xmlns="http://www.w3.org/2000/svg">
  <defs></defs>
  <path fill="#FFFFFF" stroke="#4C4C4C" stroke-width="3.4947" d="M 857.011 53.653 C 857.011 53.653 860.501 34.898 860.501 32.281 C 860.501 29.665 863.116 29.227 865.733 32.718 C 868.351 36.206 880.127 53.216 880.127 53.216 L 857.003 53.651 L 857.011 53.653 Z"></path>
  <path fill="#FFFFFF" stroke="#4C4C4C" stroke-width="3.4947" d="M 1013.497 197.511 C 1012.314 189.053 1010.698 180.989 1008.729 173.324 L 1002.409 170.801 L 1006.628 165.753 C 1004.225 157.645 1001.432 150.011 998.36 142.834 L 992.378 141.144 L 995.337 136.087 C 992.123 129.262 988.673 122.896 985.091 116.967 L 979.514 115.847 L 981.517 111.243 C 977.499 105.047 973.372 99.387 969.277 94.25 L 963.375 93.603 L 964.951 89.007 C 960.161 83.382 955.494 78.489 951.178 74.309 L 945.276 73.977 L 946.305 69.748 C 935.776 60.221 928.335 55.585 928.335 55.585 L 914.961 59.657 C 914.961 59.657 908.567 56.167 903.332 52.678 C 903.332 52.678 899.842 41.047 898.684 34.651 C 897.516 28.254 894.029 31.161 892.865 32.906 C 891.703 34.651 879.635 48.023 879.635 48.023 C 879.635 48.023 872.418 47.037 867.275 48.023 C 859.72 49.481 856.23 54.568 847.501 62.854 C 841.144 68.899 837.329 74.197 835.15 79.864 C 832.969 85.534 835.583 85.534 834.717 90.767 C 833.838 96.001 810.286 135.253 807.674 140.051 C 805.053 144.848 798.737 159.52 811.161 168.836 C 814.645 171.453 817.269 172.765 819.447 173.633 C 819.447 173.633 822.934 172.765 824.243 171.02 C 824.477 170.708 824.593 170.518 824.652 170.412 C 824.695 170.295 824.716 170.287 824.652 170.412 C 824.52 170.751 824.215 172.026 825.552 173.633 C 827.733 176.252 830.535 176.057 832.093 176.252 C 834.419 176.544 838.634 174.51 842.127 169.273 C 845.617 164.04 847.799 162.293 850.416 159.24 C 853.028 156.188 867.465 149.433 873.097 140.051 C 874.402 137.874 877.456 138.742 879.634 140.488 C 881.816 142.233 894.028 142.671 899.261 133.944 C 899.261 133.944 901.734 156.889 891.411 172.764 C 874.402 198.933 845.616 205.471 836.892 229.9 L 1015.713 229.9 C 1015.713 221.459 1015.267 213.354 1014.462 205.558 L 1008.518 202.421 L 1013.646 197.576 L 1013.497 197.511 Z"></path>
  <path fill="none" stroke="#4C4C4C" stroke-width="2.684" d="M 921.348 65.482 C 921.348 65.482 997.525 122.477 997.525 225.404"></path>
  <path fill="none" stroke="#4C4C4C" stroke-width="2.684" d="M 824.638 170.423 C 824.7 170.297 824.7 170.297 824.638 170.423 Z"></path>
  <path fill="none" stroke="#4C4C4C" stroke-width="2.684" d="M 905.649 105.016 C 907.103 121.295 899.542 132.925 899.253 133.942 C 899.253 133.942 917.573 124.495 919.315 111.989"></path>
  <path fill="none" stroke="#4C4C4C" stroke-width="2.684" d="M 899.263 133.96 C 899.263 133.96 911.475 139.925 920.49 136.144"></path>
  <path fill="none" stroke="#4C4C4C" stroke-width="2.684" d="M 824.229 171.021 C 824.229 171.021 832.37 160.552 834.702 155.754"></path>
  <path fill="none" stroke="#4C4C4C" stroke-width="2.684" d="M 874.409 73.772 C 874.409 73.772 860.998 73.835 856.528 81.184 C 850.423 91.217 857.397 92.524 857.397 92.524 C 857.397 92.524 864.374 94.707 869.173 88.165 C 874.283 81.198 870.046 76.825 870.046 76.825 L 874.388 73.77 L 874.409 73.772 Z"></path>
  <path fill="none" stroke="#4C4C4C" stroke-width="2.684" d="M 809.41 148.338 C 814.209 147.03 817.263 147.468 819.442 148.775 C 819.442 148.775 817.263 142.233 821.184 136.561 C 825.113 130.891 831.651 130.453 837.323 119.551"></path>
  <line fill="none" stroke="#4C4C4C" stroke-width="2.684" x1="936.764" y1="79.875" x2="945.038" y2="74.643"></line>
  <line fill="none" stroke="#4C4C4C" stroke-width="2.684" x1="953.784" y1="98.629" x2="962.059" y2="94.706"></line>
  <line fill="none" stroke="#4C4C4C" stroke-width="2.684" x1="969.043" y1="120.4" x2="978.639" y2="116.468"></line>
  <line fill="none" stroke="#4C4C4C" stroke-width="2.684" x1="981.25" y1="145.286" x2="991.286" y2="141.794"></line>
  <line fill="none" stroke="#4C4C4C" stroke-width="2.684" x1="990.846" y1="174.513" x2="1001.322" y2="171.461"></line>
  <line fill="none" stroke="#4C4C4C" stroke-width="2.684" x1="996.508" y1="204.181" x2="1007.425" y2="202.859"></line>
</svg>
