<svg class="piece-graphics" viewBox="1090.907 308.909 128.675 195.303" width="32.17" height="48.75" xmlns="http://www.w3.org/2000/svg">
  <defs></defs>
  <path fill="#6f6f6f" stroke="#FFFFFF" stroke-width="2.4843" stroke-linejoin="round" d="M 1180.24 475.94 C 1168.442 452.519 1169.634 410.8 1170.621 394.635 C 1189.279 393.356 1202.698 389.823 1202.698 385.658 C 1202.698 381.57 1189.782 378.088 1171.664 376.751 C 1183.235 370.788 1191.152 358.734 1191.152 344.822 C 1191.152 324.987 1175.081 308.909 1155.246 308.909 C 1135.411 308.909 1119.34 324.987 1119.34 344.822 C 1119.34 358.733 1127.26 370.788 1138.827 376.751 C 1120.713 378.088 1107.791 381.57 1107.791 385.658 C 1107.791 389.823 1121.217 393.356 1139.871 394.635 C 1140.861 410.802 1142.053 452.52 1130.255 475.94 C 1107.132 480.588 1090.907 491.501 1090.907 504.212 L 1219.582 504.212 C 1219.582 491.501 1203.379 480.584 1180.256 475.928 L 1180.24 475.94 Z"></path>
</svg>
