<svg class="piece-graphics" viewBox="1090.907 45.894 128.675 195.303" width="32.17" height="48.75" xmlns="http://www.w3.org/2000/svg">
  <defs></defs>
  <path fill="#FFFFFF" stroke="#4C4C4C" stroke-width="3.4947" stroke-linejoin="round" d="M 1180.24 212.927 C 1168.442 189.503 1169.634 147.784 1170.621 131.622 C 1189.279 130.343 1202.698 126.808 1202.698 122.643 C 1202.698 118.556 1189.782 115.072 1171.664 113.737 C 1183.235 107.775 1191.152 95.718 1191.152 81.804 C 1191.152 61.972 1175.081 45.894 1155.246 45.894 C 1135.411 45.894 1119.34 61.972 1119.34 81.804 C 1119.34 95.717 1127.254 107.775 1138.827 113.737 C 1120.713 115.072 1107.791 118.556 1107.791 122.643 C 1107.791 126.808 1121.217 130.343 1139.871 131.622 C 1140.861 147.784 1142.053 189.504 1130.255 212.927 C 1107.132 217.575 1090.907 228.485 1090.907 241.197 L 1219.582 241.197 C 1219.582 228.487 1203.379 217.57 1180.256 212.913 L 1180.24 212.927 Z"></path>
</svg>
