<svg viewBox="2587.828 -527.983 1687.138 1555.996" width="1687.138" height="1555.996" xmlns="http://www.w3.org/2000/svg">
  <defs></defs>
  <path id="path2995" style="fill:#77aaff" d="m1215-267.66s-129.14 266.32-202.8 394.53c-68.276 118.85-149.81 207.22-210.17 335.54-29.934 63.636-29.128 162.85 18.437 210.17 43.128 42.906 129.32-21.834 180.67 25.81 26.791 24.854 35.538 42.73 71.35 50 138.91 20.595 87.399-62.713 127.76-138.49 67.386-120.19 228.61-243.36 228.61-243.36s251.27-101.51 239.67-22.123c-32.596 223.05-313.41 519.9-313.41 519.9l-55.311 188.05 1168.8-14.749s4.749-300.35-25.81-446.15c-35.503-169.37-85.477-342.19-180.67-486.71-79.384-120.51-188.38-226.61-313.41-298.66-98.739-56.897-328.16-95.867-328.16-95.867l-173.3-213.86s16.517 119.85-22.124 154.86c-20.968 18.999-58.305 13.598-84.808 3.6874-61.887-23.141-143.8-136.43-143.8-136.43z" transform="matrix(1, 0, 0, 1, 1806.093018, -24.35383)"></path>
</svg>