<svg viewBox="4501.093 -527.981 936.387 1555.998" width="936.387" height="1555.998" xmlns="http://www.w3.org/2000/svg">
  <defs></defs>
  <path id="path2993" style="fill:#77aaff" d="m2695 1051.1 11.836-209.66s253.86-202.7 260.81-347.47c4.1714-86.899-135.31-62.967-135.69-223.19-0.2142-89.699 165.7-211.78 165.7-211.78l-151.75-9.7217 238.83-319.15s-69.934-94.133-57.066-144.14c11.708-45.492 62.331-89.615 135.52-89.615 73.188 0 123.81 44.123 135.52 89.615 12.867 50.011-57.068 144.14-57.068 144.14l238.84 319.15-151.75 9.7217s165.92 122.08 165.7 211.78c-0.3851 160.22-139.86 136.29-135.69 223.19 6.9499 144.77 260.81 347.47 260.81 347.47l11.835 209.66-468.19 1.2715z" transform="matrix(1, 0, 0, 1, 1806.093018, -24.35383)"></path>
</svg>