<svg viewBox="-866.507 -527.964 1278.447 1556.01" width="1278.447" height="1556.01" xmlns="http://www.w3.org/2000/svg">
  <defs></defs>
  <path id="path2991" style="fill:#77aaff" d="m-2672.6 1052.4v-142.13h79.437s-34.908-161.44 0-233.29c27.166-55.906 123.42-72.459 150.59-128.36 101.78-209.46 0-680.15 0-680.15l-174.59-148.83v-209.85h230.02l32.738 103.06h165.86l7.8561-116.46h147.31 147.31l7.857 116.46h165.86l32.738-103.06h230.02v209.85l-174.59 148.83s-101.78 470.69 0 680.15c27.166 55.906 123.42 72.459 150.59 128.36 34.91 71.843 0 233.29 0 233.29h79.44v142.13h-639.23z" transform="matrix(1, 0, 0, 1, 1806.093018, -24.35383)"></path>
</svg>