<svg class="piece-graphics" viewBox="66.706 21.972 233.906 216.175" width="58.48" height="54.04" xmlns="http://www.w3.org/2000/svg">
  <defs></defs>
  <path fill="#6f6f6f" stroke="#FFFFFF" stroke-width="4.1522" stroke-linecap="round" stroke-linejoin="round" d="M 300.53 228.626 C 298.566 227.555 280.869 210.165 264.454 210.165 C 255.922 210.165 249.231 212.742 243.33 215.012 C 237.346 217.316 231.696 219.493 223.518 219.493 C 213.986 219.493 206.073 216.585 199.087 214.019 C 193.456 211.952 188.591 210.165 183.616 210.165 C 178.642 210.165 173.779 211.952 168.148 214.019 C 161.166 216.585 153.251 219.493 143.718 219.493 C 135.54 219.493 129.888 217.316 123.905 215.012 C 118.004 212.741 111.313 210.165 102.779 210.165 C 86.367 210.165 68.669 227.555 66.706 228.626 C 66.706 228.626 74.238 224.157 80.5 224.157 C 86.761 224.157 92.907 228.819 102.78 228.819 C 107.848 228.819 111.976 230.409 117.205 232.423 C 123.829 234.973 132.072 238.147 143.719 238.147 C 156.569 238.147 166.98 234.325 174.581 231.534 C 178.042 230.26 181.961 228.819 183.617 228.819 C 185.279 228.819 189.196 230.26 192.656 231.534 C 200.257 234.325 210.666 238.147 223.519 238.147 C 235.164 238.147 243.408 234.973 250.034 232.423 C 255.258 230.409 259.389 228.819 264.455 228.819 C 274.33 228.819 278.402 224.157 286.737 224.157 C 295.138 224.157 300.612 228.624 300.612 228.624 L 300.53 228.626 Z"></path>
  <path fill="#6f6f6f" stroke="#FFFFFF" stroke-width="4.1522" d="M 201.712 39.558 C 201.045 39.34 200.355 39.156 199.653 39.008 C 203.002 37.764 205.397 34.55 205.397 30.765 C 205.397 25.908 201.461 21.972 196.604 21.972 C 191.747 21.972 187.809 25.908 187.809 30.765 C 187.809 34.14 189.711 37.064 192.502 38.541 C 167.263 40.181 128.948 73.428 127.727 129.721 C 127.242 152.088 130.078 170.397 137.889 183.696 L 222.34 183.094 C 234.686 167.517 246.04 147.801 246.04 121.949 C 246.04 87.556 220.934 45.845 201.712 39.534 L 201.712 39.558 Z"></path>
  <path fill="#6f6f6f" stroke="#FFFFFF" stroke-width="4.1522" d="M 227.006 102.779 C 217.722 72.482 193.211 42.824 171.597 38.907 C 174.809 37.597 177.071 34.444 177.071 30.767 C 177.071 25.909 173.135 21.974 168.278 21.974 C 163.422 21.974 159.483 25.91 159.483 30.767 C 159.483 34.197 161.454 37.165 164.322 38.614 C 162.831 38.776 161.367 39.087 159.935 39.56 C 140.761 45.87 116.205 88.268 116.205 121.953 C 116.205 146.799 126.271 168.203 137.889 183.698 L 222.34 183.096 C 230.331 169.756 240.115 145.594 226.996 102.773 L 227.006 102.779 Z"></path>
  <path fill="#6f6f6f" stroke="#FFFFFF" stroke-width="3.1886" stroke-linejoin="bevel" d="M 222.067 218.338 C 211.455 213.47 196.422 210.004 181.334 210.004 C 166.24 210.004 152.11 213.077 139.435 218.65 C 152.11 224.22 166.005 227.46 181.095 227.46 C 196.197 227.46 209.41 223.905 222.089 218.336 L 222.067 218.338 Z"></path>
  <path fill="#6f6f6f" stroke="#FFFFFF" stroke-width="4.1522" stroke-linejoin="bevel" d="M 217.662 188.985 L 217.655 188.974 C 207.373 184.555 195.545 180.849 180.241 180.849 C 164.924 180.849 153.113 184.558 142.828 188.985 C 142.828 188.985 140.524 203.953 140.301 207.333 C 139.954 212.514 139.433 218.645 139.433 218.645 C 152.108 213.072 166.238 210 181.333 210 C 196.131 210 209.571 212.96 222.065 218.333 C 221.617 214.186 221.097 210.041 220.062 203.823 C 219.496 200.519 217.639 188.942 217.639 188.942 L 217.662 188.985 Z"></path>
  <path fill="#6f6f6f" stroke="#FFFFFF" stroke-width="4.1522" stroke-linejoin="bevel" d="M 139.419 218.653 C 152.094 213.079 166.224 210.007 181.319 210.007 C 196.117 210.007 209.557 212.967 222.051 218.341 C 221.73 214.871 220.962 212.708 220.478 208.279 C 207.923 203.881 195.194 201.637 181.124 201.637 C 166.894 201.637 152.793 204.22 140.118 208.714 C 140.055 212.615 139.394 218.655 139.394 218.655 L 139.419 218.653 Z"></path>
  <path fill="#6f6f6f" stroke="#FFFFFF" stroke-width="4.1522" d="M 142.817 188.985 C 153.1 184.561 164.923 180.772 180.243 180.674 C 193.286 180.588 207.376 184.555 217.659 188.979 C 218.223 188.413 220.612 187.688 222.342 183.089 C 213.695 173.727 200.838 168.838 180.244 168.838 C 158.269 168.838 146.537 174.317 137.891 183.691 C 139.59 188.284 142.233 188.41 142.799 188.976 L 142.817 188.985 Z"></path>
  <line fill="none" stroke="#FFFFFF" stroke-width="3.1886" x1="180.255" y1="168.85" x2="180.255" y2="180.679"></line>
  <polygon fill="#6f6f6f" stroke="#FFFFFF" stroke-width="2.4221" points="202.121 105.582 197.999 109.704 177.298 109.704 177.298 91.035 181.419 86.913 173.114 78.614 164.808 86.913 168.961 91.079 168.961 109.704 148.165 109.704 144.044 105.582 135.738 113.888 144.044 122.193 148.197 118.041 168.961 118.041 168.961 140.85 164.808 145.003 173.114 153.308 181.419 145.003 177.298 140.881 177.298 118.041 197.968 118.041 202.121 122.193 210.426 113.888"></polygon>
</svg>
