<svg class="piece-graphics" viewBox="552.155 31.283 220.186 197.239" width="55.06" height="49.23" xmlns="http://www.w3.org/2000/svg">
  <defs></defs>
  <path fill="#6f6f6f" stroke="#FFFFFF" stroke-width="3.4947" stroke-linejoin="bevel" d="M 726.48 214.154 C 707.394 205.23 686.477 200.545 663.385 200.545 C 640.292 200.545 617.908 205.66 598.195 214.585 C 617.28 223.501 638.93 228.522 662.026 228.522 C 685.149 228.553 706.794 223.079 726.489 214.175 L 726.48 214.154 Z"></path>
  <path fill="#6f6f6f" stroke="#FFFFFF" stroke-width="3.4947" stroke-linejoin="bevel" d="M 725.064 174.104 L 725.051 174.082 C 707.896 167.01 687.934 162.707 662.016 162.707 C 636.067 162.707 616.005 167.013 598.346 174.104 C 598.346 174.104 600.272 190.475 600.352 195.889 C 600.447 201.986 598.742 214.48 598.742 214.48 C 618.454 205.554 640.302 200.537 663.394 200.537 C 686.043 200.537 709.063 205.186 726.489 214.146 C 723.626 208.42 725.073 174.128 725.073 174.128 L 725.064 174.104 Z"></path>
  <path fill="#6f6f6f" stroke="#FFFFFF" stroke-width="3.4947" stroke-linejoin="bevel" d="M 598.811 214.374 C 617.365 205.55 640.302 200.536 663.394 200.536 C 686.044 200.536 705.058 203.73 726.489 214.145 C 725.626 211.738 725.048 204.26 724.861 201.547 C 705.892 194.5 684.971 190.5 663.439 190.5 C 641.669 190.5 619.765 194.719 600.115 201.91 C 599.706 204.71 598.825 214.337 598.825 214.337 L 598.811 214.374 Z"></path>
  <path fill="#6f6f6f" stroke="#FFFFFF" stroke-width="3.4947" d="M 767.63 69.732 C 763.043 67.053 757.151 68.602 754.472 73.195 C 752.17 77.131 752.991 82.013 756.158 85.019 C 743.052 100.906 719.129 129.892 713.356 136.923 C 711.66 136.166 709.902 135.447 708.074 134.776 C 708.593 129.384 712.382 88.239 714.391 66.354 C 718.757 66.454 722.785 63.563 723.925 59.156 C 725.255 54.008 722.167 48.757 717.018 47.426 C 711.878 46.094 706.627 49.185 705.294 54.329 C 704.151 58.738 706.268 63.221 710.136 65.25 C 700.658 86.762 682.267 128.511 682.221 128.684 C 682.211 128.726 682.218 128.769 682.208 128.812 C 680.537 128.614 678.819 128.437 677.068 128.293 C 676.721 125.978 668.834 77.581 664.724 52.374 C 669.449 51.268 672.967 47.039 672.967 41.976 C 672.967 36.074 668.183 31.283 662.278 31.283 C 656.373 31.283 651.586 36.074 651.586 41.976 C 651.586 47.039 655.113 51.268 659.836 52.374 C 655.743 77.468 647.906 125.537 647.494 128.252 C 645.666 128.399 643.878 128.573 642.133 128.779 C 642.121 128.717 642.124 128.665 642.105 128.61 C 642.062 128.436 623.668 86.682 614.196 65.172 C 618.058 63.144 620.172 58.663 619.032 54.251 C 617.702 49.107 612.448 46.016 607.305 47.348 C 602.162 48.68 599.071 53.93 600.404 59.073 C 601.547 63.487 605.569 66.375 609.935 66.273 C 611.944 88.133 615.72 129.192 616.251 134.669 C 614.457 135.324 612.731 136.023 611.065 136.759 C 605.059 129.452 581.408 100.786 568.395 85.021 C 571.569 82.015 572.386 77.133 570.091 73.197 C 567.415 68.604 561.519 67.055 556.929 69.735 C 552.342 72.412 550.79 78.305 553.466 82.898 C 555.768 86.831 560.425 88.522 564.601 87.238 C 572.426 107.618 597.685 173.211 598.651 174.117 C 616.062 167.031 636.083 162.72 662.026 162.72 C 687.956 162.72 707.971 167.026 725.385 174.111 C 726.343 173.203 751.936 108.15 759.963 87.238 C 764.142 88.522 768.796 86.831 771.095 82.898 C 773.674 78.308 772.133 72.415 767.54 69.738 L 767.63 69.732 Z"></path>
  <polygon fill="#FFFFFF" points="653.427 177.219 662.362 181.686 671.328 177.219 662.362 172.751"></polygon>
  <polygon fill="#FFFFFF" points="616.87 183.007 626.402 185.965 634.519 180.113 624.987 177.156"></polygon>
  <polygon fill="#FFFFFF" points="707.886 183.039 698.353 186.028 690.237 180.176 699.769 177.187"></polygon>
</svg>
