<svg class="piece-graphics" viewBox="-169.325 30.209 212.058 199.691" width="53" height="50" xmlns="http://www.w3.org/2000/svg">
  <defs></defs>
  <path fill="#FFFFFF" stroke="#4C4C4C" stroke-width="3.4947" d="M -10.555 53.653 C -10.555 53.653 -14.045 34.898 -14.045 32.281 C -14.045 29.665 -16.658 29.227 -19.278 32.718 C -21.895 36.206 -33.67 53.216 -33.67 53.216 L -10.578 53.651 L -10.555 53.653 Z"></path>
  <path fill="#FFFFFF" stroke="#4C4C4C" stroke-width="3.4947" d="M -167.038 197.511 C -165.856 189.053 -164.236 180.989 -162.269 173.324 L -155.949 170.801 L -160.167 165.753 C -157.764 157.645 -154.97 150.011 -151.899 142.834 L -145.919 141.144 L -148.876 136.087 C -145.664 129.262 -142.212 122.896 -138.631 116.967 L -133.055 115.847 L -135.055 111.243 C -131.038 105.047 -126.912 99.387 -122.818 94.25 L -116.916 93.603 L -118.492 89.007 C -113.702 83.382 -109.034 78.489 -104.717 74.309 L -98.813 73.977 L -99.846 69.748 C -89.317 60.221 -81.877 55.585 -81.877 55.585 L -68.502 59.657 C -68.502 59.657 -62.106 56.167 -56.871 52.678 C -56.871 52.678 -53.384 41.047 -52.223 34.651 C -51.057 28.254 -47.57 31.161 -46.407 32.906 C -45.241 34.651 -33.176 48.023 -33.176 48.023 C -33.176 48.023 -25.957 47.037 -20.817 48.023 C -13.261 49.481 -9.771 54.568 -1.043 62.854 C 5.315 68.899 9.131 74.197 11.311 79.864 C 13.491 85.534 10.876 85.534 11.745 90.767 C 12.623 96.001 36.172 135.253 38.785 140.051 C 41.407 144.848 47.726 159.52 35.3 168.836 C 31.813 171.453 29.192 172.765 27.015 173.633 C 27.015 173.633 23.523 172.765 22.218 171.02 C 21.984 170.708 21.864 170.518 21.807 170.412 C 21.766 170.295 21.743 170.287 21.807 170.412 C 21.941 170.751 22.245 172.026 20.907 173.633 C 18.726 176.252 15.925 176.057 14.366 176.252 C 12.039 176.544 7.824 174.51 4.333 169.273 C 0.843 164.04 -1.337 162.293 -3.956 159.24 C -6.569 156.188 -21.005 149.433 -26.636 140.051 C -27.944 137.874 -30.996 138.742 -33.176 140.488 C -35.356 142.233 -47.57 142.671 -52.8 133.944 C -52.8 133.944 -55.275 156.889 -44.951 172.764 C -27.944 198.933 0.844 205.471 9.571 229.9 L -169.325 229.9 C -169.325 221.459 -168.88 213.354 -168.075 205.558 L -162.128 202.421 L -167.108 197.576 L -167.038 197.511 Z"></path>
  <path fill="none" stroke="#4C4C4C" stroke-width="2.684" d="M -74.893 65.482 C -74.893 65.482 -151.066 122.477 -151.066 225.404"></path>
  <path fill="none" stroke="#4C4C4C" stroke-width="2.684" d="M 21.818 170.423 C 21.755 170.297 21.755 170.297 21.818 170.423 Z"></path>
  <path fill="none" stroke="#4C4C4C" stroke-width="2.684" d="M -59.194 105.016 C -60.647 121.295 -53.086 132.925 -52.795 133.942 C -52.795 133.942 -71.117 124.495 -72.859 111.989"></path>
  <path fill="none" stroke="#4C4C4C" stroke-width="2.684" d="M -52.807 133.96 C -52.807 133.96 -65.023 139.925 -74.034 136.144"></path>
  <path fill="none" stroke="#4C4C4C" stroke-width="2.684" d="M 22.227 171.021 C 22.227 171.021 14.084 160.552 11.755 155.754"></path>
  <path fill="none" stroke="#4C4C4C" stroke-width="2.684" d="M -27.953 73.772 C -27.953 73.772 -14.542 73.835 -10.069 81.184 C -3.965 91.217 -10.941 92.524 -10.941 92.524 C -10.941 92.524 -17.918 94.707 -22.718 88.165 C -27.825 81.198 -23.59 76.825 -23.59 76.825 L -27.932 73.77 L -27.953 73.772 Z"></path>
  <path fill="none" stroke="#4C4C4C" stroke-width="2.684" d="M 37.045 148.338 C 32.243 147.03 29.192 147.468 27.016 148.775 C 27.016 148.775 29.192 142.233 25.271 136.561 C 21.341 130.891 14.802 130.453 9.131 119.551"></path>
  <line fill="none" stroke="#4C4C4C" stroke-width="2.684" x1="-90.308" y1="79.875" x2="-98.583" y2="74.643"></line>
  <line fill="none" stroke="#4C4C4C" stroke-width="2.684" x1="-107.319" y1="98.629" x2="-115.609" y2="94.706"></line>
  <line fill="none" stroke="#4C4C4C" stroke-width="2.684" x1="-122.581" y1="120.4" x2="-132.177" y2="116.468"></line>
  <line fill="none" stroke="#4C4C4C" stroke-width="2.684" x1="-134.797" y1="145.286" x2="-144.827" y2="141.794"></line>
  <line fill="none" stroke="#4C4C4C" stroke-width="2.684" x1="-144.39" y1="174.513" x2="-154.86" y2="171.461"></line>
  <line fill="none" stroke="#4C4C4C" stroke-width="2.684" x1="-150.062" y1="204.181" x2="-160.963" y2="202.859"></line>
</svg>
