<svg class="piece-graphics" viewBox="324.518 29.431 200.652 193.4" width="50.16" height="48.35" xmlns="http://www.w3.org/2000/svg">
  <defs></defs>
  <path fill="#FFFFFF" stroke="#4C4C4C" stroke-width="3.809" d="M 449.749 29.431 L 399.101 29.431 L 399.101 82.364 C 399.101 90.157 410.499 96.481 424.552 96.481 C 438.614 96.481 449.65 90.157 449.65 82.364 C 449.65 81.675 449.744 29.431 449.744 29.431 L 449.749 29.431 Z"></path>
  <rect x="399.097" y="29.431" fill="#FFFFFF" stroke="#4C4C4C" stroke-width="3.809" width="50.649" height="45.386"></rect>
  <line fill="none" stroke="#4C4C4C" stroke-width="3.809" x1="399.097" y1="29.431" x2="449.749" y2="74.813"></line>
  <line fill="none" stroke="#4C4C4C" stroke-width="3.809" x1="449.749" y1="29.431" x2="399.097" y2="74.813"></line>
  <path fill="#FFFFFF" stroke="#4C4C4C" stroke-width="3.809" stroke-linejoin="round" d="M 489.831 207.169 C 470.124 197.445 448.705 192.333 425.245 192.333 C 401.784 192.333 379.349 197.785 359.639 207.507 C 379.35 217.231 401.403 222.831 424.861 222.831 C 448.33 222.862 470.133 216.916 489.827 207.195 L 489.831 207.169 Z"></path>
  <path fill="#FFFFFF" stroke="#4C4C4C" stroke-width="3.809" stroke-linejoin="bevel" d="M 499.678 173.821 C 500.809 172.832 501.93 171.819 503.03 170.752 C 526.847 147.578 532.303 114.553 515.215 96.988 C 498.12 79.422 464.962 83.974 441.146 107.146 C 434.031 114.066 428.571 121.868 424.844 129.873 C 421.121 121.868 415.658 114.066 408.545 107.146 C 384.73 83.974 351.563 79.422 334.477 96.988 C 317.384 114.553 322.839 147.581 346.659 170.752 C 347.762 171.822 348.888 172.839 350.026 173.829 C 370.591 166.106 396.585 161.491 424.862 161.491 C 453.114 161.491 479.101 166.116 499.645 173.824 L 499.678 173.821 Z"></path>
  <path fill="#FFFFFF" stroke="#4C4C4C" stroke-width="3.809" d="M 424.864 129.901 C 428.591 121.895 434.05 114.094 441.166 107.177 C 446.963 101.53 453.323 96.998 459.87 93.614 C 449.012 90.56 437.221 88.884 424.882 88.884 C 412.538 88.884 400.734 90.565 389.873 93.624 C 396.411 97.006 402.767 101.535 408.565 107.177 C 415.675 114.099 421.118 121.901 424.862 129.892 L 424.864 129.901 Z"></path>
  <path fill="#FFFFFF" stroke="#4C4C4C" stroke-width="3.809" stroke-linejoin="bevel" d="M 499.395 173.821 L 499.382 173.804 C 478.828 166.091 452.849 161.484 424.597 161.484 C 396.32 161.484 370.327 166.099 349.764 173.821 C 349.764 173.821 359.627 181.546 361.055 187.253 C 362.48 192.955 363.092 201.134 359.665 207.492 C 379.372 197.77 401.81 192.318 425.27 192.318 C 448.282 192.318 470.435 197.779 489.856 207.154 C 486.722 200.876 486.716 192.799 488.105 187.253 C 489.521 181.59 499.399 173.851 499.399 173.851 L 499.395 173.821 Z"></path>
  <path fill="#FFFFFF" stroke="#4C4C4C" stroke-width="3.809" stroke-linejoin="bevel" d="M 359.645 207.515 C 379.353 197.793 401.79 192.341 425.251 192.341 C 448.262 192.341 470.413 197.802 489.837 207.178 C 488.503 204.495 487.102 197.646 487.327 193.825 C 467.805 186.151 446.811 181.955 424.94 181.955 C 402.816 181.955 381.599 186.238 361.892 194.074 C 362.144 201.152 361.137 204.708 359.658 207.476 L 359.645 207.515 Z"></path>
  <polygon points="415.237 171.996 424.99 176.873 434.711 171.996 424.99 167.12"></polygon>
  <polygon points="375.376 178.351 385.758 181.592 394.599 175.205 384.216 171.965"></polygon>
  <polygon points="474.572 178.351 464.19 181.592 455.35 175.205 465.732 171.965"></polygon>
  <ellipse fill="#FFFFFF" stroke="#4C4C4C" stroke-width="3.809" cx="424.864" cy="89.603" rx="17.93" ry="13.239"></ellipse>
</svg>
