<svg class="piece-graphics" viewBox="-380.418 26.052 158.757 207.702" width="39.69" height="51.92" xmlns="http://www.w3.org/2000/svg">
  <defs></defs>
  <path fill="#FFFFFF" stroke="#4C4C4C" stroke-width="3.4947" d="M -226.606 233.754 C -223.872 233.754 -221.661 231.542 -221.661 228.807 L -221.661 217.185 C -221.661 214.45 -223.872 212.24 -226.606 212.24 L -375.473 212.24 C -378.206 212.24 -380.418 214.45 -380.418 217.185 L -380.418 228.807 C -380.418 231.542 -378.206 233.754 -375.473 233.754 L -226.606 233.754 Z"></path>
  <rect x="-372.422" y="193.924" fill="#FFFFFF" stroke="#4C4C4C" stroke-width="3.4947" width="142.766" height="18.319"></rect>
  <polygon fill="#FFFFFF" stroke="#4C4C4C" stroke-width="3.4947" stroke-linejoin="bevel" points="-229.655 193.924 -244.335 177.47 -357.742 177.47 -372.422 193.924"></polygon>
  <polygon fill="#FFFFFF" stroke="#4C4C4C" stroke-width="3.4947" stroke-linejoin="round" points="-225.181 62.194 -244.335 80.517 -357.742 80.517 -376.958 62.194"></polygon>
  <rect x="-357.742" y="80.517" fill="#FFFFFF" stroke="#4C4C4C" stroke-width="3.4947" width="113.256" height="96.963"></rect>
  <path fill="#FFFFFF" stroke="#4C4C4C" stroke-width="3.4947" stroke-linecap="square" d="M -229.847 26.052 L -256.263 26.052 L -256.263 43.039 L -271.087 47.949 L -284.756 43.039 L -284.756 26.052 L -317.318 26.052 L -317.318 43.039 L -330.987 47.949 L -345.812 43.039 L -345.812 26.052 L -372.229 26.052 C -374.84 26.052 -376.957 28.264 -376.957 30.994 L -376.957 62.248 L -225.114 62.248 L -225.114 30.994 C -225.117 28.263 -227.234 26.052 -229.846 26.052 L -229.847 26.052 Z"></path>
</svg>
