<svg viewBox="638.034 -524.016 1723.685 1552.031" width="1723.685" height="1552.031" xmlns="http://www.w3.org/2000/svg">
  <defs></defs>
  <path id="path2997" style="fill:#77aaff" d="m-309.15-499.61c-41.468 0.7176-79.255 28.199-97.437 64.656-23.951 46.025-19.815 105.77 11.594 147.47-155.72 68.071-273.53 219.75-294.19 389.09-10.616 84.54 5.485 173.9 52.188 245.44 19.569 30.133 44.154 56.937 72.594 78.812-6.0342 16.272-16.49 30.408-23.437 46.312-30.823 64.753-48.471 136.39-48.177 208.41 1.3867 18.18 0.7874 37.832 10.427 53.969 10.936 15.732 31.319 19.842 48.781 24.5 16.827 4.2877 34.307 4.2743 51.281 7.2188 4.5379 0.3294 7.2453 5.6161 4.1563 9.1875-9.3344 11.55-21.557 20.688-33.844 28.969-40.95 25.286-90.757 28.106-137.75 27.299-83.198-2.2258-166.08-15.406-249.43-11.117-49.583 5.1539-97.897 18.434-146.04 31.13-26.686 7.3046-53.174 14.915-79.625 23.062 59.54 16.713 119.09 33.39 178.63 50.125-44.662 38.08-89.357 76.122-134.03 114.19 56.497-7.8108 113.41-15.354 170.66-15.214 25.566-0.2475 50.035 8.1351 75.142 11.769 92.551 16.199 188.32 24.336 281.32 7.0348 55.98-10.059 109.29-32.271 157.82-61.62 34.496-20.331 68.84-44.198 109.53-49.062 39.41-5.7031 79.936 4.3911 113.74 24.668 39.809 23.106 78.662 48.27 122.06 64.311 86.993 33.477 182.73 36.062 274.66 26.573 46.092-4.5481 91.757-13.047 137.16-22.177 37.731-3.9494 75.774 0.4632 113.4 3.8139 26.421 2.748 52.708 6.0771 79.003 9.9048-44.675-38.065-89.369-76.107-134.03-114.19 59.534-16.735 119.08-33.412 178.62-50.125-65.857-19.731-132.11-39.029-199.9-50.899-37.486-6.5768-75.862-3.9413-113.72-2.534-68.773 3.0952-137.43 13.608-206.38 9.4505-40.279-2.6257-81.991-13.296-112.37-41.098-5.4235-5.5848-13.894-10.038-15.694-18.17 0.7059-6.1398 8.8579-5.7447 13.432-6.5693 27.142-2.3256 55.355-5.734 79.536-18.712 13.827-7.4279 19.411-23.344 20.852-38.147 5.7545-45.562-0.6281-91.926-10.732-136.39-11.213-47.789-30.108-93.758-54.654-136.17-1.002-3.8491-6.4962-9.3533-1.3109-11.851 64.077-49.85 106.29-125.63 119.63-205.66 17.53-103.18-8.0489-210.96-60.978-300-53.503-89.918-134.54-163.44-230.77-205.53 39.469-52.06 35.365-132.37-11.031-178.75-20.898-21.457-50.474-34.406-80.688-33.375z" transform="matrix(1, 0, 0, 1, 1806.093018, -24.35383)"></path>
</svg>