<svg viewBox="-2635.385 -528.046 1542.817 1556.007" width="1542.817" height="1556.007" xmlns="http://www.w3.org/2000/svg">
  <defs></defs>
  <path id="path2999" style="fill:#77aaff" d="m-3217.2 1010.8c80.372-27.288 48.731-94.365 18.446-140.84-8.694-65.216 34.626-119.9 54.989-177.38 83.377 1.3558 29.957-75.353-21.286-80.531 97.684-184.17 159.58-335.59 195.12-570.46 19.851-7.6955 38.962-23.926 52.859-47.183 27.641-46.267 23.734-101.9-8.868-124.52-32.608-22.624-81.271-3.6953-108.91 42.572-21.542 36.056-23.975 77.93-8.514 105.36 26.249 35.424-87.323 251.37-164.96 305.1-29.37 22.693-58.287-3.191-65.986-15.964-47.216-81.749-25.897-175.38 1.417-420.75 27.032-12.065 50.643-44.236 59.247-85.143 11.961-56.869-9.874-109.23-48.602-116.72-38.73-7.4842-79.925 32.532-91.885 89.4-8.722 41.467 0.659 80.495 21.287 101.46-43.562 275.45-80.714 347.18-131.97 385.27-29.829 23.473-77.42 32.786-93.657-5.3214-28.233-82.404-69.416-299.99-73.791-555.56 23.443-18.487 39.378-53.922 39.378-94.722 0-59.851-34.156-108.56-77.181-108.56-43.026 0-77.185 48.707-77.185 108.56 0 40.8 15.938 76.235 39.38 94.722-4.374 255.57-45.558 473.16-73.79 555.56-28.65 41.05-60.015 30.008-93.658 5.3214-51.26-38.09-88.41-109.82-131.97-385.27 20.627-20.967 30.006-59.996 21.285-101.46-11.961-56.869-53.154-96.885-91.884-89.4-38.728 7.4843-60.563 59.848-48.604 116.72 8.605 40.908 32.216 73.078 59.248 85.143 27.314 245.37 52.183 311.68 1.418 420.75-7.7 12.773-36.615 38.657-65.987 15.964-57.822-42.685-191.21-269.67-164.96-305.1 15.462-27.435 13.027-69.309-8.515-105.36-27.641-46.267-76.304-65.196-108.91-42.572-32.603 22.624-36.511 78.255-8.868 124.52 13.895 23.257 33.007 39.488 52.859 47.183 35.535 234.87 97.437 386.29 195.12 570.46-51.244 5.1781-104.66 81.887-21.287 80.531 20.363 57.483 63.681 112.17 54.988 177.38-30.284 46.476-61.925 113.55 18.447 140.84 159.3 31.947 298.42 41.824 452.88 41.507 154.46 0.3167 293.57-9.5606 452.88-41.507z" transform="matrix(1, 0, 0, 1, 1806.093018, -24.35383)"></path>
</svg>