<svg viewBox="-4398.31 -522.227 1530.973 1544.391" width="1530.973" height="1544.391" xmlns="http://www.w3.org/2000/svg">
  <defs></defs>
  <path id="path2989" style="stroke:#77aaff;stroke-width:11.617px;fill:#77aaff" d="m-5892.5 1003.3c-83.272-19.71-49.869-96.565-18.877-144.12 8.896-66.737-35.43-122.69-56.272-181.52-85.32 1.3874-30.656-77.11 21.782-82.409-17.549-52.785-91.6-92.578-128.88-142.31-74.776-73.877-148.65-170.9-125.25-283.17-8.197-101.67 52.796-192.21 143.04-235.25 118.84-74.247 277.79-45.462 379.01 45.379 47.298 34.002 72.404 174.58 145.21 90.758 39.386-71.401-5.2858-152.52-26.502-222.9-27.362-85.372-75.562-178.92-41.024-269.01 5.024-9.8996 11.966-18.283 18.878-26.864 37.378-33.942 89.55-50.434 141.22-49.736l1.2451 0.0007c52.916-0.6994 105.09 15.794 142.47 49.736 7.593 8.1043 13.169 17.434 18.878 26.864 34.538 90.085-13.662 183.64-41.024 269.01-21.216 70.38-65.888 151.5-26.502 222.9 72.81 83.819 97.916-56.756 145.21-90.758 101.22-90.842 260.16-119.63 379.01-45.379 90.242 43.032 151.23 133.58 143.04 235.25 23.401 112.26-50.47 209.29-125.25 283.17-37.277 49.731-111.33 89.524-128.88 142.31 52.438 5.2988 107.1 83.796 21.782 82.409-20.841 58.823-65.168 114.78-56.271 181.52 30.991 47.56 63.368 116.2-18.878 144.12-163.02 32.692-305.16 42.799-453.58 42.476-152.93 5.0784-319.13-16.697-453.59-42.476z" transform="matrix(1, 0, 0, 1, 1806.093018, -24.35383)"></path>
</svg>